<svg xmlns="http://www.w3.org/2000/svg" id="logo-insidebard-ink-brandos" viewBox="0 0 554.21 96"><defs><style>.cls-1{fill:#ee2e20;}.cls-2{fill:#1b1712;}</style></defs><path id="Tracé_6781" d="M169.39 23.18h8.55v42.36h-8.52z" class="cls-2"/><path id="Tracé_6782" d="m545.04 23.18.03 42.36h8.53V23.18h-8.55Z" class="cls-2"/><path id="Tracé_6783" d="M186.13 36.62h7.36v3.46a7.97 7.97 0 0 1 3.38-3.2c1.58-.78 3.32-1.16 5.07-1.12 2.85-.19 5.62.93 7.54 3.04 1.74 2.03 2.67 4.97 2.67 8.81v16.97h-7.6V49.04c0-4.35-1.67-6.54-4.99-6.54-1.66-.12-3.28.57-4.35 1.84a8.03 8.03 0 0 0-1.51 5.19v15.04h-7.57z" class="cls-2"/><path id="Tracé_6784" d="M249.08 30.91c-1.23.03-2.41-.45-3.27-1.33a4.26 4.26 0 0 1-1.33-3.15c-.01-1.19.47-2.32 1.33-3.14a4.873 4.873 0 0 1 6.54 0 4.48 4.48 0 0 1 0 6.32c-.86.86-2.05 1.34-3.27 1.31m-3.79 5.7h7.64v27.96h-7.64z" class="cls-2"/><path id="Tracé_6785" d="M272.36 65.44c-4.81.1-9.22-2.64-11.25-7a17 17 0 0 1-1.71-7.77c-.03-2.57.54-5.12 1.67-7.44a13.9 13.9 0 0 1 4.75-5.43c2.04-1.37 4.45-2.09 6.91-2.06 1.74-.02 3.46.35 5.03 1.09 1.46.69 2.72 1.75 3.64 3.07V20.09h7.64v44.47h-7.3l-.12-3.63a9 9 0 0 1-3.78 3.32c-1.72.8-3.59 1.2-5.49 1.17m2.09-6.79a7 7 0 0 0 5.34-2.24 9.15 9.15 0 0 0 0-11.59c-2.92-2.95-7.68-2.97-10.63-.05l-.05.05a9.15 9.15 0 0 0 0 11.59 6.94 6.94 0 0 0 5.35 2.24Z" class="cls-2"/><path id="Tracé_6786" d="M328.71 22.84h15.53c4.39 0 7.77.94 10.13 2.78a9.35 9.35 0 0 1 3.54 7.88c.04 1.83-.42 3.63-1.33 5.22a9.53 9.53 0 0 1-3.83 3.62c2.15.57 4.04 1.87 5.34 3.68 3.22 4.91 2.44 11.43-1.84 15.45-2.55 2.07-6.22 3.11-11.01 3.11h-16.51V22.84Zm8.01 17.08h6.37c1.8.13 3.59-.34 5.1-1.34a4.79 4.79 0 0 0 1.71-4c.09-1.48-.53-2.91-1.68-3.85a8.05 8.05 0 0 0-5.02-1.33h-6.47v10.52Zm0 18.11h8.01c1.85.12 3.69-.44 5.17-1.56a5.53 5.53 0 0 0 1.8-4.42c0-3.81-2.47-5.71-7.41-5.71h-7.57z" class="cls-2"/><path id="Tracé_6787" d="M378.68 65.44c-2.63.03-5.23-.61-7.54-1.87a13.9 13.9 0 0 1-5.46-5.3 15.52 15.52 0 0 1-.15-15.13 14.37 14.37 0 0 1 5.34-5.41c2.37-1.37 5.06-2.07 7.8-2.03 2.63-.02 5.23.6 7.56 1.83a13.9 13.9 0 0 1 5.46 5.25c2.66 4.7 2.71 10.43.13 15.18a14.26 14.26 0 0 1-5.34 5.34 15.1 15.1 0 0 1-7.8 2.14m0-6.81c2.02.06 3.97-.76 5.34-2.25a9.15 9.15 0 0 0 0-11.59c-2.92-2.95-7.68-2.97-10.63-.05l-.05.05a9.15 9.15 0 0 0 0 11.59 6.93 6.93 0 0 0 5.34 2.24" class="cls-2"/><path id="Tracé_6788" d="M410.78 65.44c-2.35.05-4.67-.58-6.67-1.8-2-1.26-3.61-3.06-4.63-5.19a17 17 0 0 1-1.69-7.77c-.03-2.58.55-5.12 1.69-7.44 1.07-2.2 2.71-4.08 4.75-5.43 2.04-1.37 4.45-2.09 6.91-2.06 1.8-.03 3.57.38 5.18 1.17 1.52.75 2.8 1.9 3.71 3.32l.11-3.63h7.37v27.96h-7.34l-.11-3.63a9 9 0 0 1-3.79 3.32c-1.72.8-3.59 1.2-5.49 1.17m2.07-6.8a6.93 6.93 0 0 0 5.34-2.24 9.12 9.12 0 0 0 0-11.59c-2.92-2.95-7.68-2.97-10.63-.05l-.05.05a9.15 9.15 0 0 0 0 11.59 7 7 0 0 0 5.3 2.24z" class="cls-2"/><path id="Tracé_6789" d="M433.41 36.62h7.36v4.62a9.1 9.1 0 0 1 3.11-3.79c1.34-.9 2.92-1.37 4.53-1.34 1.11 0 2.2.2 3.23.61l-.65 7.18a9.2 9.2 0 0 0-3.4-.65c-1.89-.09-3.71.75-4.86 2.26a10.2 10.2 0 0 0-1.72 6.32v12.74h-7.64l.05-27.94Z" class="cls-2"/><path id="Tracé_6790" d="M466.71 65.44c-4.81.1-9.22-2.64-11.25-7a17 17 0 0 1-1.71-7.77c-.03-2.57.54-5.12 1.67-7.44a13.9 13.9 0 0 1 4.75-5.43c2.04-1.37 4.45-2.09 6.91-2.06 1.74-.02 3.46.35 5.03 1.09 1.46.69 2.72 1.75 3.64 3.07V20.09h7.64v44.47h-7.3l-.12-3.63a9 9 0 0 1-3.78 3.32c-1.72.8-3.59 1.2-5.49 1.17m2.09-6.79a7 7 0 0 0 5.34-2.24 9.15 9.15 0 0 0 0-11.59c-2.92-2.95-7.68-2.97-10.63-.05l-.05.05a9.15 9.15 0 0 0 0 11.59 6.93 6.93 0 0 0 5.34 2.24" class="cls-2"/><path id="Tracé_6791" d="M322.37 49.63c.06-2.56-.51-5.1-1.67-7.38a11.8 11.8 0 0 0-4.67-4.81 13.9 13.9 0 0 0-6.94-1.67c-2.64-.06-5.25.61-7.53 1.95a13.3 13.3 0 0 0-4.99 5.34 16.3 16.3 0 0 0-1.75 7.6c-.03 2.78.67 5.51 2.03 7.93a13.1 13.1 0 0 0 5.67 5.14c2.27 1.06 4.74 1.65 7.25 1.72 4.39.18 8.6-1.75 11.33-5.19l-4.53-4a9.63 9.63 0 0 1-6.81 2.86c-6.67-.68-7.38-6.14-7.38-6.14h19.65c.22-1.1.33-2.22.33-3.34m-20.01-2.03c.21-1.7.99-3.27 2.2-4.47a6.16 6.16 0 0 1 4.33-1.56c1.59-.08 3.14.48 4.31 1.56a6.82 6.82 0 0 1 1.88 4.46h-12.72Z" class="cls-2"/><path id="Tracé_6792" d="M238.29 50.91c-.82-.81-1.77-1.49-2.82-1.99-1.21-.57-2.5-.97-3.82-1.17l-4.26-.73c-.82-.1-1.6-.44-2.23-.99-.43-.42-.67-.99-.67-1.59 0-.37.1-.74.28-1.07.22-.36.5-.68.84-.94.4-.31.85-.54 1.33-.69a6 6 0 0 1 1.79-.27h.57c.31 0 .62.05.92.11 1.93.36 3.65 1.43 4.83 3l4.19-3.67-.12-.23a8.7 8.7 0 0 0-2.14-2.46 11.3 11.3 0 0 0-3.42-1.82c-1.58-.51-3.24-.75-4.9-.71-1.45 0-2.89.22-4.27.68a11.8 11.8 0 0 0-3.56 1.91 9.4 9.4 0 0 0-2.46 2.9c-.59 1.12-.9 2.38-.89 3.64-.06 2.1.8 4.13 2.35 5.55 1.72 1.52 3.84 2.51 6.11 2.83l4.27.77s3.36.52 3.36 2.67-3.27 2.94-3.27 2.94c-.51.06-1.03.06-1.55 0a9.1 9.1 0 0 1-7.04-4.01l-4.41 3.91c3.22 6.21 11.72 5.97 11.72 5.97 1.65.01 3.3-.26 4.86-.8 1.32-.45 2.54-1.13 3.62-2.02.96-.79 1.74-1.77 2.28-2.88.51-1.04.77-2.19.77-3.35 0-1.02-.2-2.03-.6-2.96-.4-.95-.98-1.82-1.71-2.55" class="cls-2"/><path id="Tracé_6793" d="M516.64 22.84h6.42l17.98 41.73h-8.49l-3.89-9.55h-18.1l-3.77 9.55h-8.31zm9.43 25.82-6.42-16.98-6.54 16.98h12.97Z" class="cls-2"/><path id="Tracé_6794" d="m138.98 2.57.03-.1.02-.07s.02-.07.02-.11v-.06c.02-.05.02-.11.03-.16v-.22s0-.09-.01-.14v-.03c0-.06-.02-.11-.03-.16 0-.02 0-.03-.01-.05 0-.04-.02-.08-.03-.12 0-.02-.01-.04-.02-.05-.02-.05-.04-.09-.06-.14l-.02-.04-.06-.12-.04-.05-.06-.09c-.02-.03-.02-.04-.04-.05l-.1-.13-.04-.04-.06-.06-.03-.03-.04-.04s-.09-.07-.13-.11-.09-.07-.15-.1l-.04-.03-.12-.06c-.02 0-.03-.01-.04-.02-.05-.02-.09-.04-.15-.06l-.06-.02-.11-.03-.06-.02s-.1-.02-.14-.03h-.04s-.09-.02-.14-.02h-.22c-.06 0-.11 0-.17.02h-.02l-.14.03h-.05s-.08.03-.12.05l-.05.02h-.01L69.56 24.49 2.63.12h-.01S2.58.1 2.57.1L2.46.07h-.05S2.32.04 2.27.03h-.03C2.18.02 2.13.01 2.07.01h-.23s-.09 0-.13.01h-.07s-.08.03-.13.04l-.07.02-.09.03-.07.02-.15.06-.05.02S1 .25.97.27L.92.3C.87.33.82.36.77.4S.68.47.64.51L.6.55.57.58.51.64.47.68S.4.76.37.81C.36.83.35.84.34.86S.3.92.28.95s-.02.04-.03.06c-.02.04-.04.07-.06.11 0 .01-.01.03-.02.04-.02.05-.04.09-.06.14 0 .02-.01.04-.02.05l-.03.12c0 .02 0 .03-.01.05l-.03.16v.03s-.01.09-.01.14v.22c0 .05 0 .11.02.16 0 .02 0 .04.01.06 0 .04.01.07.02.11s.01.05.02.07.02.07.03.1c0 .02.01.04.02.06H.11l12.41 34.09c.2.54.63.97 1.17 1.17l16.28 5.93-7.19 19.75c-.16.43-.16.91 0 1.34l5.05 13.9c.2.55.63.97 1.17 1.17l15.07 5.49c.66.24 1.39.11 1.93-.34l5.78-4.85c.06-.06.12-.11.17-.17l.02-.02.06-.07.02-.02s.05-.06.07-.09l.06-.09s.01-.02.02-.03c.02-.03.03-.05.05-.08v-.02c.05-.07.08-.14.11-.22l9.32-25.61 7.85-6.46 7.85 6.46 9.33 25.6c.03.08.06.16.09.23v.02s.04.06.06.08l.02.03a1.3 1.3 0 0 0 .15.21c.02.02.04.05.06.07l.02.02c.05.06.11.12.18.17l5.78 4.85c.54.45 1.27.58 1.93.34l15.07-5.49c.55-.2.97-.63 1.17-1.17l5.05-13.9c.16-.43.16-.91 0-1.34l-7.19-19.75 16.28-5.93c.55-.2.97-.63 1.17-1.17l12.41-34.09s.01-.04.02-.06m-33.62 38.41L94.5 44.94 73.4 27.23l58.19-21.18zM87.88 71.23l-14-38.47 18.11 15.2-4.11 23.28Zm-36.69 0-4.11-23.28 18.11-15.2-14 38.47Zm-6.63-26.28L33.7 41 7.48 6.05l58.2 21.18-21.11 17.72ZM8.32 13.7l18.65 24.85-11.07-4.03zm36.04 67.69L31.21 76.6l-4.5-12.37 6.94-19.08 9.57 3.48 5.18 29.36-4.04 3.39Zm26.42-38.06s-.09-.07-.13-.09l-.03-.02s-.09-.05-.13-.08c-.01 0-.03-.02-.04-.02-.03-.02-.06-.03-.09-.04-.24-.11-.5-.17-.77-.18h-.09c-.27 0-.53.07-.78.18-.03.02-.07.03-.09.05l-.04.02s-.09.05-.13.08c0 0-.02.01-.02.02-.05.03-.09.06-.14.1l-3.96 3.26 5.21-14.3 5.21 14.3-3.97-3.26Zm41.58 20.91-4.5 12.37-13.15 4.78L90.67 78l5.18-29.36 9.57-3.48zm10.82-29.72-11.07 4.03 18.65-24.85z" class="cls-2"/><path d="M473.1 83.04c-1.38 0-2.43.47-3.17 1.41-.08.1-.14.22-.21.33v-1.49h-2.36v12.44h2.36v-7.1c0-1.13.28-1.98.84-2.54s1.28-.84 2.15-.84c.42 0 .78.06 1.1.18.31.12.6.32.86.6l1.54-1.6c-.44-.51-.91-.86-1.42-1.07-.5-.23-1.07-.34-1.7-.34Zm-11.63 2.98c.58-.35 1.05-.76 1.4-1.25.54-.73.81-1.59.81-2.57 0-.84-.21-1.61-.63-2.3-.4-.7-1-1.26-1.81-1.68-.79-.44-1.77-.65-2.96-.65h-6.81v18.17h7.02c1.28 0 2.35-.23 3.22-.68q1.335-.705 2.04-1.86c.47-.77.71-1.63.71-2.59 0-1.15-.33-2.15-1-2.99-.51-.67-1.18-1.2-2-1.6Zm-3.24-6.31c.89 0 1.6.24 2.15.71.54.45.81 1.12.81 1.99s-.27 1.55-.79 2.02c-.5.45-1.19.68-2.07.68h-4.4v-5.39h4.3Zm2.85 12.96c-.59.61-1.41.92-2.46.92h-4.69v-6.34h4.77c.66 0 1.24.14 1.73.42.5.28.89.66 1.15 1.15.27.47.39 1 .39 1.6 0 .87-.3 1.62-.89 2.25m92.63-4.19c-.31-.65-.73-1.17-1.25-1.57-.53-.4-1.1-.73-1.73-1-.63-.26-1.27-.5-1.91-.71-.63-.23-1.21-.47-1.73-.73s-.95-.58-1.28-.94c-.31-.38-.47-.88-.47-1.49 0-.77.29-1.36.86-1.78.57-.44 1.35-.65 2.33-.65.8 0 1.51.16 2.12.47.63.31 1.22.79 1.75 1.41l1.68-1.68c-.59-.75-1.36-1.35-2.31-1.81-.94-.47-2.01-.71-3.19-.71q-1.62 0-2.94.6-1.29.57-2.04 1.68c-.49.72-.73 1.59-.73 2.62 0 .93.15 1.69.47 2.3.33.61.76 1.11 1.28 1.49.52.37 1.1.68 1.73.94.62.24 1.25.48 1.88.71.63.21 1.21.45 1.73.73.54.26.97.6 1.28 1.02s.47.97.47 1.65c0 .82-.33 1.47-.99 1.94-.65.47-1.51.71-2.59.71s-2.03-.2-2.78-.6c-.75-.42-1.41-1.03-1.99-1.83l-1.68 1.68q1.185 1.485 2.7 2.28c1.01.52 2.23.79 3.66.79 1.89 0 3.38-.45 4.48-1.36 1.12-.91 1.68-2.17 1.68-3.77 0-.96-.17-1.75-.5-2.38ZM537.46 80a8.7 8.7 0 0 0-2.93-1.99c-1.1-.47-2.3-.71-3.59-.71s-2.49.24-3.61.71c-1.1.47-2.07 1.13-2.91 1.99-.82.86-1.47 1.85-1.94 2.99-.45 1.12-.68 2.33-.68 3.64s.23 2.51.68 3.64a9.8 9.8 0 0 0 1.96 3.01c.84.86 1.81 1.53 2.93 2.02 1.12.47 2.32.71 3.62.71s2.46-.24 3.56-.71a8.9 8.9 0 0 0 2.91-2.02 9.3 9.3 0 0 0 1.96-2.99c.47-1.13.71-2.35.71-3.64s-.24-2.53-.71-3.67a9.6 9.6 0 0 0-1.96-2.99Zm-.73 10.26c-.58 1.05-1.36 1.88-2.36 2.49-.98.59-2.12.89-3.43.89-.96 0-1.85-.17-2.67-.52-.8-.35-1.5-.83-2.09-1.44a6.9 6.9 0 0 1-1.36-2.23c-.31-.87-.47-1.82-.47-2.83 0-1.36.28-2.57.84-3.61.58-1.05 1.35-1.87 2.33-2.46.99-.59 2.14-.89 3.43-.89.98 0 1.87.17 2.67.52.8.33 1.5.81 2.09 1.44s1.06 1.37 1.39 2.23c.33.84.5 1.76.5 2.78 0 1.36-.29 2.58-.86 3.64Zm-20.24-5.18c-.44-.6-.97-1.09-1.65-1.44-.75-.4-1.59-.6-2.51-.6-1.15 0-2.18.29-3.09.86a6.3 6.3 0 0 0-2.17 2.33c-.53.98-.79 2.08-.79 3.3s.26 2.32.79 3.3c.54.98 1.27 1.75 2.17 2.33q1.365.84 3.09.84c.94 0 1.79-.19 2.54-.58.66-.36 1.19-.85 1.62-1.43v1.75h2.38v-18.7h-2.38zm-1.73 8.14c-.58.37-1.26.55-2.04.55s-1.48-.18-2.1-.55a3.96 3.96 0 0 1-1.41-1.49c-.33-.65-.5-1.39-.5-2.23s.17-1.54.5-2.17c.35-.65.82-1.15 1.41-1.52s1.28-.55 2.07-.55 1.46.18 2.04.55c.59.37 1.06.86 1.39 1.49.35.63.53 1.37.53 2.23s-.17 1.55-.5 2.2c-.33.63-.79 1.13-1.39 1.49m-13.25-9.48c-.71-.47-1.54-.71-2.49-.71s-1.79.22-2.54.65c-.58.32-1.03.77-1.41 1.28v-1.68h-2.36v12.44h2.36v-7.25q0-.945.42-1.68c.28-.49.66-.87 1.15-1.15s1.05-.42 1.68-.42c.94 0 1.71.31 2.3.92s.89 1.39.89 2.33v7.25h2.36v-7.73c0-.86-.21-1.66-.63-2.41-.42-.77-.99-1.39-1.73-1.86Zm-14.61 1.31c-.43-.59-.96-1.07-1.62-1.41-.74-.4-1.57-.6-2.52-.6-1.15 0-2.19.29-3.12.86a6.3 6.3 0 0 0-2.17 2.33c-.52.98-.79 2.08-.79 3.3s.27 2.32.79 3.3c.54.98 1.28 1.75 2.2 2.33.92.56 1.96.84 3.09.84.96 0 1.81-.19 2.54-.58.66-.35 1.18-.84 1.6-1.43v1.74h2.38V83.29h-2.38v1.75Zm-.92 7.55c-.71.79-1.66 1.18-2.83 1.18-.79 0-1.48-.18-2.1-.55-.61-.37-1.09-.86-1.44-1.49-.33-.65-.5-1.39-.5-2.23s.16-1.54.5-2.17c.35-.65.82-1.15 1.41-1.52.61-.37 1.31-.55 2.1-.55s1.48.18 2.07.55c.59.35 1.05.85 1.37 1.49.33.63.5 1.37.5 2.23 0 1.24-.36 2.26-1.07 3.06Z" class="cls-1"/></svg>