<svg xmlns="http://www.w3.org/2000/svg" id="logo-insidebard-ink-tagline" viewBox="0 0 156 96"><defs><style>.cls-1{fill:#ffffff;}</style></defs><path id="Tracé_6794" d="m155.89 2.88.03-.12.02-.08s.02-.08.02-.12V2.5c.02-.06.02-.12.03-.18v-.25c0-.05 0-.11-.01-.16v-.03c0-.06-.02-.12-.04-.18 0-.02 0-.03-.01-.05-.01-.04-.02-.09-.04-.13 0-.02-.01-.04-.02-.06-.02-.05-.04-.11-.06-.16l-.02-.05s-.04-.09-.07-.13l-.04-.06s-.04-.07-.07-.11-.03-.04-.04-.06c-.04-.05-.07-.1-.11-.14l-.04-.04s-.04-.05-.06-.07l-.04-.04-.05-.04-.15-.12a1 1 0 0 0-.17-.11L154.9.3s-.09-.05-.13-.07c-.02 0-.03-.02-.05-.02-.06-.02-.11-.05-.17-.07l-.07-.02s-.08-.02-.12-.04l-.07-.02-.16-.03h-.04a1 1 0 0 0-.16-.02h-.25c-.06 0-.13 0-.19.02h-.02c-.06 0-.11.02-.16.03h-.06s-.09.04-.13.05l-.06.02h-.01L77.99 27.45 2.95.13h-.01L2.88.1C2.84.09 2.8.07 2.75.06h-.06c-.05-.02-.1-.03-.15-.04h-.03l-.19-.03h-.26s-.1 0-.14.01h-.08s-.09.03-.14.04l-.08.02-.11.03-.08.03c-.06.02-.11.04-.17.07l-.05.03s-.09.04-.13.07l-.05.03C.97.35.92.39.86.43S.76.51.72.56L.67.6.63.64S.59.68.57.71L.53.75S.45.84.41.89C.4.91.39.93.37.95s-.05.07-.07.11-.03.04-.04.06c-.02.04-.05.08-.07.13 0 .01-.01.03-.02.05-.02.05-.04.11-.06.16 0 .02-.01.04-.02.06-.01.04-.03.09-.04.13 0 .02 0 .04-.01.05-.02.06-.03.12-.04.18v.03c0 .05-.01.11-.01.16v.25c0 .06 0 .12.02.18 0 .02 0 .04.01.06 0 .04.01.08.02.12s.01.05.02.08.02.08.03.12c0 .02.01.05.02.07h.02l13.92 38.24c.22.61.7 1.09 1.32 1.31l18.26 6.65-8.06 22.15a2.15 2.15 0 0 0 0 1.5l5.67 15.59c.22.61.7 1.09 1.31 1.32l16.91 6.15c.74.27 1.56.12 2.16-.38l6.48-5.44c.07-.06.13-.13.19-.19l.02-.02.07-.08.02-.03.08-.11s.05-.07.07-.11c0-.01.01-.02.02-.03.02-.03.03-.06.05-.09v-.03c.05-.08.09-.16.12-.25s10.45-28.73 10.45-28.73l8.8-7.25 8.8 7.25 10.47 28.72c.03.09.07.18.11.26v.02s.05.06.06.09l.02.03c.05.07.09.14.15.21 0 0 .01.02.02.03.02.03.05.05.07.08l.02.02c.06.07.13.13.2.19l6.48 5.44c.6.5 1.43.65 2.17.38l16.91-6.15c.61-.22 1.09-.7 1.32-1.32l5.67-15.59c.18-.49.18-1.02 0-1.5l-8.06-22.15 18.26-6.65c.61-.22 1.09-.7 1.31-1.31l13.92-38.24s.01-.05.02-.07m-37.72 43.12-12.18 4.43-23.67-19.87 65.27-23.75zM98.58 79.9 82.87 36.75l20.32 17.04zm-41.16 0-4.61-26.11 20.31-17.04L57.41 79.9Zm-7.43-29.48-12.18-4.43L8.39 6.79l65.28 23.76zM9.33 15.36l20.91 27.87-12.42-4.52zM49.76 91.3l-14.75-5.37-5.04-13.88 7.79-21.4 10.73 3.91L54.3 87.5l-4.53 3.8ZM79.4 48.6s-.1-.07-.15-.11l-.03-.02s-.1-.06-.14-.09c-.01 0-.03-.02-.05-.03-.03-.02-.07-.03-.11-.05-.27-.13-.56-.19-.86-.2h-.1c-.3 0-.6.07-.87.2-.04.02-.07.03-.11.05l-.04.02-.15.09s-.02.01-.03.02c-.05.04-.11.07-.15.11l-4.44 3.66 5.84-16.04 5.84 16.04-4.45-3.66Zm46.63 23.45-5.04 13.88-14.75 5.37-4.53-3.8 5.81-32.94 10.73-3.91 7.79 21.4Zm12.14-33.33-12.42 4.52 20.92-27.87z" class="cls-1"/></svg>