<svg xmlns="http://www.w3.org/2000/svg" id="logo-insidebard-ink-tagline" viewBox="0 0 620.97 96"><defs><style>.cls-1{fill:#1b1712;}</style></defs><path id="Tracé_6781" d="M190.01 26.01h9.59v47.52h-9.56z" class="cls-1"/><path id="Tracé_6782" d="m611.38 26.01.03 47.52h9.56V26.01z" class="cls-1"/><path id="Tracé_6783" d="M208.78 41.07h8.25v3.88a8.93 8.93 0 0 1 3.79-3.59c1.77-.87 3.72-1.3 5.69-1.26 3.19-.21 6.31 1.05 8.46 3.41 1.95 2.28 2.99 5.57 2.99 9.88v19.03h-8.52V54.99c0-4.88-1.87-7.34-5.6-7.34-1.86-.13-3.68.64-4.88 2.07a9.07 9.07 0 0 0-1.7 5.83v16.87h-8.49V41.06Z" class="cls-1"/><path id="Tracé_6784" d="M279.39 34.68c-1.38.03-2.71-.51-3.67-1.5-.97-.92-1.51-2.2-1.5-3.53a4.74 4.74 0 0 1 1.5-3.52 5.48 5.48 0 0 1 7.34 0 5.02 5.02 0 0 1 0 7.09c-.97.97-2.3 1.5-3.67 1.46m-4.25 6.39h8.57v31.36h-8.57z" class="cls-1"/><path id="Tracé_6785" d="M305.51 73.4c-5.39.11-10.34-2.96-12.62-7.85-1.32-2.71-1.98-5.7-1.92-8.72-.03-2.89.61-5.74 1.87-8.34 1.21-2.47 3.05-4.57 5.33-6.1 2.29-1.54 5-2.34 7.76-2.31 1.95-.02 3.88.39 5.65 1.23a10.5 10.5 0 0 1 4.09 3.44V22.53h8.57v49.88h-8.19l-.13-4.07c-1.03 1.62-2.5 2.91-4.24 3.73-1.93.89-4.03 1.34-6.16 1.32m2.32-7.62c2.27.07 4.45-.85 5.99-2.52 3.09-3.78 3.09-9.22 0-13a8.43 8.43 0 0 0-11.92-.06l-.06.06a10.274 10.274 0 0 0 0 13 7.84 7.84 0 0 0 6 2.52Z" class="cls-1"/><path id="Tracé_6786" d="M368.72 25.62h17.42c4.93 0 8.72 1.05 11.37 3.11 2.69 2.12 4.17 5.42 3.97 8.83.04 2.05-.47 4.08-1.5 5.86a10.64 10.64 0 0 1-4.3 4.06c2.42.64 4.54 2.1 5.99 4.13a13.565 13.565 0 0 1-2.07 17.33c-2.85 2.33-6.97 3.49-12.35 3.49h-18.52V25.62Zm8.98 19.15h7.14c2.02.14 4.03-.38 5.72-1.5a5.4 5.4 0 0 0 1.92-4.49c.1-1.66-.6-3.26-1.89-4.31a9.06 9.06 0 0 0-5.63-1.5h-7.26zm0 20.32h8.98c2.08.13 4.14-.49 5.8-1.75a6.2 6.2 0 0 0 2.02-4.96c0-4.27-2.77-6.41-8.31-6.41h-8.49z" class="cls-1"/><path id="Tracé_6787" d="M424.77 73.4c-2.95.04-5.87-.69-8.46-2.1a15.67 15.67 0 0 1-6.12-5.94c-3-5.24-3.06-11.67-.16-16.97a16.06 16.06 0 0 1 5.99-6.06 16.87 16.87 0 0 1 8.74-2.28c2.95-.03 5.86.68 8.48 2.05 2.54 1.36 4.66 3.4 6.12 5.89a17.57 17.57 0 0 1 .15 17.03c-1.42 2.5-3.49 4.57-5.99 5.99a16.94 16.94 0 0 1-8.75 2.4m0-7.64a7.8 7.8 0 0 0 5.99-2.52c3.09-3.78 3.09-9.22 0-13a8.43 8.43 0 0 0-11.92-.06l-.06.06a10.274 10.274 0 0 0 0 13 7.8 7.8 0 0 0 5.99 2.52" class="cls-1"/><path id="Tracé_6788" d="M460.77 73.4c-2.64.05-5.24-.65-7.49-2.02a14 14 0 0 1-5.2-5.83c-1.31-2.71-1.96-5.7-1.9-8.72a18.4 18.4 0 0 1 1.9-8.34c1.2-2.47 3.04-4.57 5.33-6.1 2.29-1.54 5-2.34 7.76-2.31 2.01-.03 4.01.42 5.81 1.32 1.7.84 3.14 2.13 4.16 3.73l.12-4.07h8.26v31.36h-8.24l-.12-4.07a10.23 10.23 0 0 1-4.25 3.73c-1.93.89-4.03 1.34-6.16 1.32m2.35-7.64c2.27.07 4.46-.84 5.99-2.52 3.11-3.77 3.11-9.22 0-13a8.43 8.43 0 0 0-11.92-.06l-.06.06a10.274 10.274 0 0 0 0 13 7.86 7.86 0 0 0 5.94 2.52z" class="cls-1"/><path id="Tracé_6789" d="M486.15 41.07h8.25v5.18a10.2 10.2 0 0 1 3.49-4.25 8.8 8.8 0 0 1 5.08-1.5c1.24 0 2.47.23 3.62.69l-.73 8.05c-1.21-.48-2.51-.73-3.81-.73a6.47 6.47 0 0 0-5.45 2.53 11.33 11.33 0 0 0-1.93 7.08v14.29h-8.57l.06-31.34Z" class="cls-1"/><path id="Tracé_6790" d="M523.52 73.4c-5.39.11-10.34-2.96-12.62-7.85-1.32-2.71-1.98-5.7-1.92-8.72-.03-2.89.61-5.74 1.87-8.34 1.21-2.47 3.05-4.57 5.33-6.1 2.29-1.54 5-2.34 7.76-2.31 1.95-.02 3.88.4 5.65 1.23a10.5 10.5 0 0 1 4.09 3.44V22.53h8.57v49.88h-8.19l-.13-4.07c-1.03 1.62-2.5 2.91-4.24 3.73-1.93.89-4.03 1.34-6.15 1.32m2.3-7.62c2.27.07 4.45-.85 5.99-2.52 3.09-3.78 3.09-9.22 0-13a8.43 8.43 0 0 0-11.92-.06l-.06.06a10.274 10.274 0 0 0 0 13 7.8 7.8 0 0 0 5.99 2.52" class="cls-1"/><path id="Tracé_6791" d="M361.61 55.67c.07-2.87-.58-5.72-1.87-8.28A13.27 13.27 0 0 0 354.5 42a15.55 15.55 0 0 0-7.79-1.87c-2.96-.07-5.89.69-8.45 2.19a14.9 14.9 0 0 0-5.6 5.99 18.25 18.25 0 0 0-1.96 8.52c-.04 3.12.75 6.19 2.28 8.9 1.5 2.51 3.72 4.52 6.37 5.77 2.55 1.19 5.32 1.85 8.13 1.93 4.92.2 9.65-1.97 12.71-5.83l-5.08-4.49c-2.02 2.04-4.77 3.2-7.64 3.2-7.49-.76-8.28-6.89-8.28-6.89h22.04c.24-1.23.37-2.49.38-3.74m-22.47-2.28c.24-1.9 1.11-3.67 2.47-5.02a6.87 6.87 0 0 1 4.85-1.75c1.78-.09 3.52.54 4.84 1.75a7.67 7.67 0 0 1 2.11 5z" class="cls-1"/><path id="Tracé_6792" d="M267.29 57.11c-.92-.91-1.99-1.67-3.16-2.23-1.36-.64-2.8-1.09-4.28-1.32l-4.78-.82c-.93-.11-1.8-.5-2.5-1.11a2.5 2.5 0 0 1-.75-1.78c0-.42.11-.83.32-1.2.24-.41.56-.76.94-1.05.45-.34.96-.61 1.5-.78.65-.2 1.33-.31 2.01-.3h.64c.35.01.69.05 1.03.12 2.16.41 4.1 1.61 5.42 3.37l4.7-4.12-.14-.25c-.62-1.06-1.43-2-2.4-2.75-1.15-.9-2.45-1.59-3.83-2.04-1.77-.57-3.63-.84-5.5-.79-1.63 0-3.25.25-4.79.76-1.45.48-2.8 1.2-4 2.14a10.5 10.5 0 0 0-2.75 3.25 8.7 8.7 0 0 0-1 4.09c-.06 2.36.9 4.63 2.64 6.23 1.93 1.71 4.31 2.81 6.86 3.18l4.79.87s3.77.58 3.77 3-3.67 3.29-3.67 3.29q-.87.105-1.74 0c-3.19-.18-6.11-1.84-7.89-4.49l-4.94 4.39c3.61 6.96 13.15 6.69 13.15 6.69 1.85.01 3.7-.29 5.45-.9 1.48-.5 2.85-1.27 4.06-2.26a9.8 9.8 0 0 0 2.56-3.23c.57-1.17.86-2.46.87-3.76 0-1.14-.23-2.27-.67-3.32a8.9 8.9 0 0 0-1.92-2.86" class="cls-1"/><path id="Tracé_6793" d="M579.52 25.62h7.2l20.17 46.81h-9.52l-4.36-10.71h-20.3l-4.23 10.71h-9.32l20.37-46.81Zm10.57 28.96-7.2-19.04-7.34 19.04z" class="cls-1"/><path id="Tracé_6794" d="m155.89 2.88.03-.12.02-.08s.02-.08.02-.12V2.5c.02-.06.02-.12.03-.18v-.25c0-.05 0-.11-.01-.16v-.03c0-.06-.02-.12-.04-.18 0-.02 0-.03-.01-.05-.01-.04-.02-.09-.04-.13 0-.02-.01-.04-.02-.06-.02-.05-.04-.11-.06-.16l-.02-.05s-.04-.09-.07-.13l-.04-.06s-.04-.07-.07-.11-.03-.04-.04-.06c-.04-.05-.07-.1-.11-.14l-.04-.04s-.04-.05-.06-.07l-.04-.04-.05-.04-.15-.12a1 1 0 0 0-.17-.11L154.9.3s-.09-.05-.13-.07c-.02 0-.03-.02-.05-.02-.06-.02-.11-.05-.17-.07l-.07-.02s-.08-.02-.12-.04l-.07-.02-.16-.03h-.04a1 1 0 0 0-.16-.02h-.25c-.06 0-.13 0-.19.02h-.02c-.06 0-.11.02-.16.03h-.06s-.09.04-.13.05l-.06.02h-.01L77.99 27.45 2.95.13h-.01L2.88.1C2.84.09 2.8.07 2.75.06h-.06c-.05-.02-.1-.03-.15-.04h-.03l-.19-.03h-.26s-.1 0-.14.01h-.08s-.09.03-.14.04l-.08.02-.11.03-.08.03c-.06.02-.11.04-.17.07l-.05.03s-.09.04-.13.07l-.05.03C.97.35.92.39.86.43S.76.51.72.56L.67.6.63.64S.59.68.57.71L.53.75S.45.84.41.89C.4.91.39.93.37.95s-.05.07-.07.11-.03.04-.04.06c-.02.04-.05.08-.07.13 0 .01-.01.03-.02.05-.02.05-.04.11-.06.16 0 .02-.01.04-.02.06-.01.04-.03.09-.04.13 0 .02 0 .04-.01.05-.02.06-.03.12-.04.18v.03c0 .05-.01.11-.01.16v.25c0 .06 0 .12.02.18 0 .02 0 .04.01.06 0 .04.01.08.02.12s.01.05.02.08.02.08.03.12c0 .02.01.05.02.07h.02l13.92 38.24c.22.61.7 1.09 1.32 1.31l18.26 6.65-8.06 22.15a2.15 2.15 0 0 0 0 1.5l5.67 15.59c.22.61.7 1.09 1.31 1.32l16.91 6.15c.74.27 1.56.12 2.16-.38l6.48-5.44c.07-.06.13-.13.19-.19l.02-.02.07-.08.02-.03.08-.11s.05-.07.07-.11c0-.01.01-.02.02-.03.02-.03.03-.06.05-.09v-.03c.05-.08.09-.16.12-.25s10.45-28.73 10.45-28.73l8.8-7.25 8.8 7.25 10.47 28.72c.03.09.07.18.11.26v.02s.05.06.06.09l.02.03c.05.07.09.14.15.21 0 0 .01.02.02.03.02.03.05.05.07.08l.02.02c.06.07.13.13.2.19l6.48 5.44c.6.5 1.43.65 2.17.38l16.91-6.15c.61-.22 1.09-.7 1.32-1.32l5.67-15.59c.18-.49.18-1.02 0-1.5l-8.06-22.15 18.26-6.65c.61-.22 1.09-.7 1.31-1.31l13.92-38.24s.01-.05.02-.07m-37.72 43.12-12.18 4.43-23.67-19.87 65.27-23.75zM98.58 79.9 82.87 36.75l20.32 17.04zm-41.16 0-4.61-26.11 20.31-17.04L57.41 79.9Zm-7.43-29.48-12.18-4.43L8.39 6.79l65.28 23.76zM9.33 15.36l20.91 27.87-12.42-4.52zM49.76 91.3l-14.75-5.37-5.04-13.88 7.79-21.4 10.73 3.91L54.3 87.5l-4.53 3.8ZM79.4 48.6s-.1-.07-.15-.11l-.03-.02s-.1-.06-.14-.09c-.01 0-.03-.02-.05-.03-.03-.02-.07-.03-.11-.05-.27-.13-.56-.19-.86-.2h-.1c-.3 0-.6.07-.87.2-.04.02-.07.03-.11.05l-.04.02-.15.09s-.02.01-.03.02c-.05.04-.11.07-.15.11l-4.44 3.66 5.84-16.04 5.84 16.04-4.45-3.66Zm46.63 23.45-5.04 13.88-14.75 5.37-4.53-3.8 5.81-32.94 10.73-3.91 7.79 21.4Zm12.14-33.33-12.42 4.52 20.92-27.87z" class="cls-1"/></svg>